# xmcd
#
# Track frame offsets:
#	150
#	8175
#	23475
#	39075
#	51600
#	65625
#	81600
#	90975
#	107025
#	123900
#	139650
#	153000
#
# Disc length: 2216 seconds
#
# Revision: 0
# Processed by: cddbd v1.4PL0 Copyright (c) Steve Scherf et al.
# Submitted via: EasyCDDAExtractor 4.6.9.1
#
DISCID=9008a60c
DTITLE=Carlos Zel - Com Tradicao
DYEAR=1900
DGENRE=Blues
TTITLE0=Guitarrada
TTITLE1=Fado Tropical
TTITLE2=Quando o peito tem saudade
TTITLE3=Mais anos de Fado
TTITLE4=Nova Lisboa
TTITLE5=Fado da Internet
TTITLE6=A beira mar
TTITLE7=Nossa Senhora do Fado
TTITLE8=Poema do nosso amor
TTITLE9=Coracao atormentado
TTITLE10=Retrato de um alfacinha suburbano
TTITLE11=Ponto final
EXTD=
EXTT0=
EXTT1=
EXTT2=
EXTT3=
EXTT4=
EXTT5=
EXTT6=
EXTT7=
EXTT8=
EXTT9=
EXTT10=
EXTT11=
PLAYORDER=
